<?xml version="1.0" standalone="no"?>
<!DOCTYPE svg PUBLIC "-//W3C//DTD SVG 20010904//EN"
 "http://www.w3.org/TR/2001/REC-SVG-20010904/DTD/svg10.dtd">
<svg version="1.0" xmlns="http://www.w3.org/2000/svg"
 width="1254.000000pt" height="1254.000000pt" viewBox="0 0 1254.000000 1254.000000"
 preserveAspectRatio="xMidYMid meet">

<g transform="translate(0.000000,1254.000000) scale(0.100000,-0.100000)"
fill="#000000" stroke="none">
<path d="M6646 9248 c-36 -48 -73 -127 -89 -189 -20 -75 -32 -239 -18 -239 5
0 15 -9 20 -19 8 -14 6 -25 -7 -42 -15 -20 -18 -37 -14 -96 4 -69 6 -73 28
-73 31 0 47 -31 34 -64 -6 -17 -17 -26 -31 -26 -19 0 -20 -4 -14 -42 10 -62
27 -93 53 -96 50 -7 52 -102 2 -102 -18 0 -20 -6 -20 -59 0 -50 5 -67 31 -105
26 -39 35 -46 63 -46 19 0 40 -8 49 -18 24 -26 21 -78 -4 -103 -17 -17 -28
-20 -69 -14 -32 4 -50 3 -55 -5 -13 -20 -18 -130 -8 -153 6 -12 15 -34 22 -49
8 -22 17 -28 41 -28 17 0 38 -5 48 -11 14 -8 48 10 192 106 96 64 220 142 275
172 55 31 102 58 104 59 2 2 -47 57 -110 121 -229 236 -365 490 -445 833 -17
76 -45 301 -38 312 3 4 1 8 -5 8 -5 0 -21 -15 -35 -32z"/>
<path d="M6201 8881 c-18 -11 -10 -109 10 -123 14 -9 102 -4 132 8 22 8 28 29
16 63 -10 28 -11 29 -28 12 -14 -14 -29 -17 -67 -14 -59 6 -69 14 -55 42 13
23 12 25 -8 12z"/>
<path d="M6210 8555 c0 -36 20 -74 44 -81 26 -9 98 -8 125 1 12 3 25 14 30 24
13 23 3 63 -13 54 -6 -4 -38 -10 -71 -14 -62 -8 -95 1 -95 26 0 8 -4 15 -10
15 -5 0 -10 -11 -10 -25z"/>
<path d="M6228 8304 c-15 -24 -18 -80 -5 -97 16 -23 88 -38 142 -30 64 9 75
19 75 64 0 35 -2 39 -18 30 -10 -5 -48 -12 -83 -16 -68 -6 -88 3 -101 45 -2 7
-7 10 -10 4z"/>
<path d="M6197 8003 c-4 -6 -10 -32 -13 -56 -6 -41 -4 -47 19 -62 17 -10 55
-19 104 -22 69 -5 81 -3 105 16 27 22 46 79 34 100 -4 6 -19 3 -39 -9 -18 -12
-50 -20 -74 -20 -53 0 -121 26 -125 48 -2 12 -6 13 -11 5z"/>
<path d="M7240 7887 c-153 -83 -520 -327 -520 -346 0 -4 -15 -14 -32 -23 -39
-19 -128 -95 -128 -110 0 -6 42 -63 93 -127 52 -64 158 -201 237 -306 79 -104
165 -217 190 -250 25 -33 97 -126 159 -208 63 -81 117 -149 121 -152 12 -7
953 1232 947 1248 -4 13 -259 103 -852 302 -38 13 -77 26 -85 29 -8 3 -66 -22
-130 -57z"/>
<path d="M6120 7665 c-7 -9 -15 -38 -18 -64 -4 -43 -2 -51 19 -64 31 -20 101
-31 168 -28 65 3 89 14 101 47 10 25 13 100 3 76 -2 -6 -8 -10 -11 -8 -4 2
-43 6 -87 7 -84 4 -142 18 -154 38 -6 9 -11 8 -21 -4z"/>
<path d="M8440 7566 c0 -7 24 -81 54 -166 56 -161 190 -550 292 -847 32 -95
62 -173 66 -173 7 0 33 36 183 254 44 64 139 201 211 304 90 129 128 191 122
199 -20 26 -191 135 -279 179 -96 48 -263 118 -379 159 -36 13 -111 41 -167
63 -62 24 -103 35 -103 28z"/>
<path d="M8285 7442 c-69 -95 -238 -318 -636 -840 -110 -145 -203 -270 -206
-278 -5 -13 73 -14 655 -12 363 2 663 6 667 10 4 4 -20 87 -53 185 -33 98
-124 367 -202 598 -77 231 -144 423 -148 426 -4 4 -38 -36 -77 -89z"/>
<path d="M5989 7303 c-6 -16 -12 -48 -12 -72 -2 -40 1 -46 31 -64 42 -25 223
-37 247 -17 20 16 40 55 49 94 6 24 4 28 -10 22 -9 -4 -31 2 -49 12 -21 13
-45 18 -71 15 -58 -5 -135 -4 -155 2 -11 4 -16 12 -12 21 3 7 2 14 -1 14 -4 0
-11 -12 -17 -27z"/>
<path d="M6530 7301 c0 -5 7 -14 15 -21 16 -14 18 -10 9 14 -6 17 -24 22 -24
7z"/>
<path d="M6617 7128 c-28 -20 -51 -21 -115 -2 -19 6 -25 0 -45 -47 -13 -30
-34 -84 -47 -121 -23 -66 -23 -68 -5 -88 10 -11 31 -20 46 -20 41 0 70 -41 58
-83 -11 -40 -52 -77 -85 -77 -14 0 -37 9 -51 19 -13 11 -30 18 -37 15 -14 -6
-74 -188 -83 -253 l-6 -41 35 0 c41 0 68 -25 68 -63 0 -66 -44 -101 -101 -79
-27 10 -29 9 -35 -26 -4 -21 -8 -80 -8 -132 l-1 -95 46 -5 c26 -3 54 -12 63
-19 25 -21 31 -77 11 -107 -15 -24 -21 -26 -61 -20 -54 7 -54 6 -18 -147 l26
-109 46 5 c40 4 49 2 74 -23 50 -50 31 -120 -33 -120 -16 0 -29 -5 -29 -12 0
-16 32 -103 68 -182 l26 -58 57 6 c50 6 60 4 83 -16 61 -54 34 -136 -40 -122
-35 6 -36 6 -29 -17 4 -13 16 -41 27 -63 25 -48 27 -46 106 94 33 58 164 281
292 495 335 563 392 663 384 678 -5 6 -62 82 -127 167 -173 224 -173 224 -359
468 -93 122 -170 222 -171 222 -1 0 -15 -10 -30 -22z"/>
<path d="M9409 7027 c-9 -12 -90 -128 -181 -257 -91 -129 -202 -287 -248 -350
-45 -63 -87 -124 -92 -135 -6 -14 2 -85 27 -230 55 -320 154 -903 179 -1059
l22 -139 135 -59 c73 -32 209 -93 301 -135 93 -42 170 -75 172 -72 5 6 -20
318 -49 599 -34 340 -44 493 -55 890 -11 380 -20 485 -56 637 -31 133 -111
334 -132 333 -4 0 -14 -11 -23 -23z"/>
<path d="M5851 6956 c-14 -17 -34 -123 -25 -137 13 -22 92 -46 172 -53 69 -6
88 -5 108 9 26 17 64 92 64 127 0 17 -4 19 -22 13 -49 -17 -208 4 -208 28 0 6
-3 7 -6 4 -4 -3 -16 0 -28 8 -26 19 -40 19 -55 1z"/>
<path d="M5712 6544 c-10 -27 -17 -87 -13 -125 0 -10 9 -15 24 -14 24 2 50
-13 42 -25 -8 -13 183 -22 206 -9 46 24 82 167 42 166 -10 0 -34 2 -53 6 -19
3 -55 9 -80 11 -25 3 -70 8 -101 12 -54 6 -56 6 -67 -22z"/>
<path d="M7919 6233 l-546 -3 -11 -25 c-11 -23 -200 -346 -537 -915 -176 -297
-225 -385 -225 -404 0 -8 11 -22 23 -31 21 -14 28 -14 66 0 35 12 47 12 74 1
39 -15 40 -15 376 153 477 239 827 450 1170 706 154 115 374 304 391 335 6 12
21 51 34 88 12 37 26 75 30 85 8 16 -2 17 -145 15 -85 -2 -400 -4 -700 -5z"/>
<path d="M8724 5907 l-89 -242 3 -170 c3 -221 25 -463 67 -755 41 -281 57
-370 65 -370 3 0 23 33 45 73 21 39 78 144 127 232 48 88 88 171 88 185 0 14
-13 104 -29 200 -49 286 -128 764 -155 929 -14 85 -27 155 -29 157 -2 2 -44
-105 -93 -239z"/>
<path d="M5650 6068 c0 -71 16 -125 41 -139 33 -17 234 -8 254 12 22 22 35 85
28 136 l-6 43 -158 0 -159 0 0 -52z"/>
<path d="M8582 5847 c-176 -162 -510 -402 -808 -580 -222 -133 -503 -284 -747
-402 -143 -69 -207 -105 -207 -116 0 -26 -27 -42 -56 -35 -14 4 -35 4 -45 1
-19 -6 -20 -8 -3 -33 10 -15 62 -82 117 -149 86 -106 104 -123 129 -123 50 0
85 -51 78 -113 -1 -10 16 -39 38 -65 47 -58 265 -356 432 -592 226 -319 255
-359 265 -356 27 7 214 551 355 1031 163 553 323 1049 458 1415 33 90 59 166
57 168 -2 2 -30 -21 -63 -51z"/>
<path d="M5940 5689 c-125 -14 -226 -31 -240 -39 -12 -7 -11 -20 8 -77 20 -61
61 -133 62 -108 0 12 47 12 73 1 24 -11 145 15 173 37 19 15 24 28 24 65 0 41
-19 116 -31 125 -2 2 -33 0 -69 -4z"/>
<path d="M6050 5246 c-87 -24 -200 -64 -200 -71 0 -17 52 -116 74 -142 25 -30
56 -47 41 -24 -11 19 37 33 115 34 101 2 135 24 134 83 -1 52 -42 144 -63 143
-9 0 -54 -11 -101 -23z"/>
<path d="M6265 4820 c-66 -32 -131 -68 -144 -79 l-25 -19 33 -51 c28 -43 37
-50 55 -45 34 12 96 13 102 2 3 -5 11 -4 20 3 11 9 14 9 14 0 0 -7 5 -9 13 -4
6 4 20 9 30 10 36 6 78 35 88 61 11 29 -4 78 -44 145 l-23 37 -119 -60z"/>
<path d="M9140 4757 c0 -3 13 -43 29 -89 16 -46 59 -177 96 -293 37 -115 102
-320 145 -455 44 -135 120 -373 171 -530 50 -157 94 -289 99 -293 11 -12 27
377 46 1133 l6 265 -278 128 c-283 131 -314 144 -314 134z"/>
<path d="M9031 4693 c-11 -27 -48 -97 -81 -158 -33 -60 -83 -154 -111 -209
l-50 -98 155 -232 c85 -127 225 -328 310 -446 85 -118 194 -272 243 -342 48
-70 91 -127 94 -127 8 -1 -23 96 -288 919 -102 316 -197 612 -211 658 -14 45
-28 82 -32 82 -4 0 -17 -21 -29 -47z"/>
<path d="M6507 4417 c-54 -29 -112 -64 -129 -78 l-31 -24 26 -50 c30 -60 56
-95 57 -77 0 6 11 12 24 12 14 0 27 4 30 8 4 7 51 9 51 2 0 -2 36 -11 55 -13
28 -3 79 21 95 47 12 18 15 36 11 58 -9 41 -68 161 -81 165 -5 1 -54 -21 -108
-50z"/>
<path d="M6912 4248 c-12 -15 43 -205 81 -282 29 -58 57 -75 109 -69 50 7 85
-16 93 -61 14 -72 -26 -115 -91 -97 -67 19 -74 7 -74 -122 1 -78 5 -120 15
-137 8 -14 14 -35 15 -47 0 -29 36 -53 80 -53 65 0 98 -60 68 -125 -15 -32
-49 -41 -98 -25 -21 7 -49 10 -62 7 -22 -6 -26 -16 -45 -114 -12 -66 -17 -115
-11 -125 4 -9 8 -35 8 -57 0 -46 26 -71 72 -71 62 0 90 -79 47 -134 -25 -32
-54 -33 -113 -4 -65 31 -82 20 -113 -72 -16 -51 -24 -96 -24 -140 1 -57 4 -68
26 -87 15 -13 37 -23 50 -23 33 0 68 -46 60 -80 -9 -36 -44 -70 -72 -70 -14 0
-43 11 -66 25 -64 37 -78 28 -114 -73 -41 -114 -43 -183 -6 -212 14 -11 36
-20 48 -20 48 0 74 -60 45 -107 -28 -46 -60 -51 -116 -18 -42 25 -50 26 -84
16 -35 -10 -39 -15 -45 -54 -3 -23 -13 -85 -22 -137 -16 -100 -41 -350 -35
-350 4 0 44 40 485 492 185 190 337 349 337 352 0 6 19 57 115 301 150 384
265 686 265 698 0 4 -42 64 -92 133 -118 160 -218 298 -363 499 -175 244 -295
408 -318 433 -23 25 -40 28 -55 10z"/>
<path d="M6675 3938 c-77 -26 -144 -49 -149 -51 -8 -3 2 -46 26 -109 8 -22 13
-25 36 -19 24 7 62 6 102 -1 8 -2 26 -11 40 -21 35 -24 57 -21 91 12 26 26 29
36 28 88 0 32 -8 78 -17 104 l-17 45 -140 -48z"/>
<path d="M7921 3378 c-71 -178 -157 -403 -241 -628 -38 -102 -92 -245 -120
-319 -28 -73 -49 -135 -48 -136 24 -20 499 -271 503 -266 2 5 0 147 -5 317 -5
170 -14 498 -20 729 -6 231 -12 424 -13 428 -2 5 -26 -51 -56 -125z"/>
<path d="M6770 3480 c-36 -4 -100 -8 -144 -9 l-79 -1 7 -46 c3 -26 6 -57 6
-69 0 -21 4 -23 38 -18 28 4 45 -1 72 -20 19 -13 34 -29 33 -35 -2 -8 16 -12
52 -12 46 0 60 5 85 28 28 25 31 34 37 110 7 94 19 86 -107 72z"/>
<path d="M6495 3046 c-2 -6 -5 -32 -7 -58 -3 -46 -2 -48 24 -48 15 0 38 -4 53
-10 29 -11 106 -86 97 -94 -3 -3 17 -6 45 -6 39 0 54 5 70 23 22 23 53 114 53
154 0 21 -4 23 -53 23 -29 0 -78 4 -108 9 -91 16 -171 19 -174 7z"/>
<path d="M6369 2639 c0 -2 -2 -34 -5 -70 l-5 -66 28 4 c37 4 103 -42 122 -85
11 -23 23 -33 47 -38 53 -10 85 13 121 86 39 77 41 98 11 105 -13 2 -79 16
-148 30 -69 13 -135 27 -147 31 -13 3 -23 5 -24 3z"/>
<path d="M6237 2214 c-4 -4 -7 -28 -7 -52 0 -25 3 -42 6 -39 4 4 19 -2 33 -12
14 -9 42 -25 62 -34 20 -9 55 -37 77 -62 61 -68 94 -57 133 44 28 76 26 88
-18 94 -41 5 -238 51 -264 61 -8 4 -18 3 -22 0z"/>
<path d="M6106 1758 c-13 -66 -8 -72 74 -85 41 -6 122 -55 149 -89 l19 -25 16
23 c9 12 16 30 16 39 0 9 11 33 25 53 30 45 30 46 4 46 -17 0 -251 53 -285 65
-7 2 -15 -10 -18 -27z"/>
</g>
</svg>
